<?xml version="1.0" encoding="utf-8"?>
<!-- Generator: Adobe Illustrator 21.0.0, SVG Export Plug-In . SVG Version: 6.00 Build 0)  -->
<svg version="1.1" id="Слой_1" xmlns="http://www.w3.org/2000/svg" xmlns:xlink="http://www.w3.org/1999/xlink" x="0px" y="0px"
	 viewBox="0 0 78 348" style="enable-background:new 0 0 78 348;" xml:space="preserve">
<g>
	<polygon points="21.1,303.2 21.1,308.6 39.1,318 21.1,327.3 21.1,332.7 43.6,320.4 57,320.4 57,315.6 43.6,315.6 	"/>
	<path d="M46.7,274.2c-2.1,0-3.9,0.6-5.4,1.7c-1.5,1.1-2.6,2.7-3.1,4.6c-0.7-1.6-1.7-2.9-3-3.9c-1.3-1-2.8-1.4-4.5-1.4
		c-3.2,0-5.5,1-7.2,2.9c-1.6,2-2.4,4.9-2.4,8.8v11.7H57v-12.5c0-3.8-0.9-6.8-2.8-8.9C52.4,275.2,49.9,274.2,46.7,274.2z M36.4,293.9
		H25v-7c0-2.4,0.4-4.1,1.3-5.3c0.9-1.2,2.3-1.7,4.3-1.7c1.8,0,3.2,0.6,4.2,1.9c1,1.2,1.6,2.9,1.6,5V293.9z M53.2,293.9H40.2V286
		c0-4.7,2.2-7.1,6.5-7.1c2,0,3.6,0.6,4.7,1.9c1.1,1.3,1.7,3,1.7,5.2V293.9z"/>
	<path d="M30.4,268.2c2.5,0,4.6-0.9,6.3-2.8c1.7-1.8,3.1-4.8,4.3-8.9c0.9-3.2,1.9-5.5,2.8-6.7c1-1.2,2.3-1.8,4.1-1.8
		c1.8,0,3.1,0.7,4.2,2c1,1.3,1.5,3.2,1.5,5.7c0,2.7-0.6,4.8-1.9,6.4c-1.3,1.6-3,2.4-5.1,2.4v4.8c2.1,0,4-0.6,5.6-1.7
		c1.6-1.2,2.9-2.8,3.9-4.9c0.9-2.1,1.4-4.4,1.4-6.9c0-3.8-0.9-6.8-2.6-9.1c-1.8-2.3-4.1-3.4-7-3.4c-1.8,0-3.4,0.4-4.8,1.2
		c-1.3,0.8-2.5,2.1-3.5,3.8c-1,1.7-1.9,4-2.8,7s-1.8,5.1-2.8,6.3c-1,1.2-2.3,1.9-3.7,1.9c-1.8,0-3.3-0.7-4.3-2
		c-1-1.3-1.5-3.1-1.5-5.5c0-2.5,0.6-4.5,1.9-5.8c1.2-1.4,3-2.1,5.1-2.1v-4.8c-2,0-3.8,0.5-5.5,1.6c-1.7,1.1-3,2.6-3.9,4.5
		c-1,1.9-1.4,4.1-1.4,6.6c0,3.6,0.9,6.6,2.8,8.8C25.2,267.1,27.6,268.2,30.4,268.2z"/>
	<rect x="38.2" y="226.4" width="3.7" height="12"/>
	<path d="M-0.1,0v348h78.2V0H-0.1z M73.8,343.7H4.2V4.3h69.6V343.7z"/>
	<path d="M32.3,219.1c2,1,4.3,1.4,6.9,1.4H40c4.2,0,7.5-1.1,10-3.2c2.4-2.1,3.6-5,3.6-8.7c0-1.8-0.4-3.5-1.2-5.1
		c-0.8-1.6-1.9-2.9-3.3-3.9c-1.4-1-2.8-1.5-4.4-1.6v4.3c1.5,0.1,2.7,0.8,3.7,2c1,1.2,1.5,2.6,1.5,4.3c0,2.4-0.8,4.2-2.5,5.4
		c-1.7,1.3-4,1.9-7.1,1.9h-0.9c-3.2,0-5.6-0.6-7.2-1.9c-1.7-1.3-2.5-3.1-2.5-5.4c0-1.7,0.6-3.2,1.7-4.4c1.1-1.2,2.5-1.8,4.3-2v-4.3
		c-2.9,0.1-5.2,1.2-7,3.2c-1.8,2-2.7,4.5-2.7,7.5c0,2.4,0.6,4.5,1.7,6.3C28.8,216.8,30.3,218.2,32.3,219.1z"/>
	<path d="M32.5,192.6c2.1,1,4.4,1.5,7.1,1.5h0.3c4.1,0,7.5-1.1,10-3.4c2.5-2.2,3.8-5.2,3.8-8.8c0-2.4-0.6-4.5-1.7-6.4
		c-1.2-1.8-2.8-3.3-4.8-4.3c-2.1-1-4.4-1.5-7-1.5h-0.3c-4.2,0-7.5,1.1-10,3.4c-2.5,2.2-3.8,5.2-3.8,8.8c0,2.4,0.6,4.4,1.7,6.3
		C28.8,190.2,30.4,191.6,32.5,192.6z M32.4,176.5c1.8-1.4,4.2-2.1,7.1-2.1c3.3,0,5.8,0.7,7.6,2c1.8,1.4,2.7,3.2,2.7,5.5
		c0,2.3-0.9,4.1-2.7,5.5c-1.8,1.4-4.2,2.1-7.1,2.1c-3.3,0-5.9-0.7-7.7-2.1c-1.8-1.4-2.7-3.2-2.7-5.5
		C29.7,179.7,30.6,177.9,32.4,176.5z"/>
	<path d="M26,151.8c0,3.3,1.2,6,3.5,7.9l-3,0.1v4.3h26.7v-4.6H33.7c-2.5-1.1-3.8-3.1-3.8-6.1c0-3.8,1.9-5.7,5.8-5.7h17.5v-4.6H35.4
		c-1.7-0.2-3.1-0.8-4.1-1.9c-1-1.1-1.5-2.5-1.5-4.2c0-2.1,0.5-3.5,1.4-4.4c0.9-0.9,2.4-1.3,4.3-1.3h17.6v-4.6H35.3
		c-6.2,0.1-9.3,3.1-9.3,8.9c0,1.9,0.4,3.6,1.2,5c0.8,1.4,1.8,2.6,3.1,3.5C27.4,145.5,26,148.1,26,151.8z"/>
	<path d="M29.4,115.5l-3,0.2v4.2h37v-4.6H50.6c2.1-1.9,3.1-4.4,3.1-7.6c0-3.2-1.2-5.7-3.7-7.5c-2.5-1.9-5.8-2.8-9.8-2.8h-0.4
		c-4.3,0-7.7,0.9-10.1,2.8c-2.4,1.9-3.6,4.4-3.6,7.6C26,111,27.1,113.6,29.4,115.5z M32.4,103.8c1.7-1.3,4.1-1.9,7.1-1.9
		c3.4,0,6,0.6,7.7,1.9c1.7,1.3,2.6,3,2.6,5.2c0,2.8-1.2,4.9-3.7,6.3H33.5c-2.5-1.4-3.7-3.5-3.7-6.2
		C29.8,106.8,30.7,105.1,32.4,103.8z"/>
	<path d="M30,90.3c1.2,0.9,2.5,1.4,3.9,1.4v-4.6c-1.2,0-2.2-0.6-3-1.7c-0.8-1.1-1.2-2.5-1.2-4.1c0-1.9,0.5-3.3,1.4-4.2
		c0.9-1,2.2-1.4,3.8-1.4H37v4.4c0,3.8,0.8,6.8,2.3,8.9c1.5,2.1,3.7,3.2,6.5,3.2c2.3,0,4.2-0.8,5.7-2.5c1.5-1.7,2.2-3.8,2.2-6.5
		c0-2.9-1.1-5.5-3.3-7.6c1.3-0.2,2.3-0.4,2.8-0.6v-4.8h-0.4c-1.4,0.6-3.4,0.9-5.8,0.9H34.6c-2.7,0.1-4.8,1-6.4,2.7
		C26.7,75.6,26,78,26,81.1c0,1.9,0.4,3.7,1.1,5.3C27.8,88.1,28.7,89.4,30,90.3z M40.2,75.7h5.5c1.2,0.6,2.1,1.5,2.9,2.8
		c0.7,1.3,1.1,2.6,1.1,4.1c0,1.5-0.4,2.7-1.2,3.7c-0.8,1-1.9,1.4-3.4,1.4c-3.3,0-4.9-2.8-4.9-8.4V75.7z"/>
	<path d="M29.8,59.6l-3.4,0.1V64h26.7v-4.6h-19c-1.3-0.6-2.3-1.5-3.1-2.6c-0.8-1.1-1.2-2.4-1.2-3.9c0-1.8,0.5-3.2,1.4-4
		s2.3-1.3,4.3-1.3h17.7V43H35.5c-6.4,0-9.5,2.9-9.5,8.5C26,54.8,27.2,57.5,29.8,59.6z"/>
	<path d="M55.6,30.5c1.7,0.6,2.8,1.3,3.4,2.1c0.6,0.9,0.9,2.1,0.9,3.6l-0.1,1.2h3.7l0.3-1.7l0.1-0.9c0-3.6-2.2-6.3-6.7-7.9
		L26.4,16.3v4.9l20,6.2l-20,6.7v5l26.4-9.5L55.6,30.5z"/>
</g>
</svg>
